<mxfile host="app.diagrams.net" modified="2020-10-31T13:09:09.922Z" agent="5.0 (Macintosh; Intel Mac OS X 10_15_4) AppleWebKit/537.36 (KHTML, like Gecko) Chrome/86.0.4240.80 Safari/537.36" etag="fNBGhvX5NbROYe34xs_P" version="13.8.8" type="github">
  <diagram id="C5RBs43oDa-KdzZeNtuy" name="Page-1">
    <mxGraphModel dx="1425" dy="1909" grid="1" gridSize="10" guides="1" tooltips="1" connect="1" arrows="1" fold="1" page="1" pageScale="1" pageWidth="827" pageHeight="1169" math="0" shadow="0">
      <root>
        <mxCell id="WIyWlLk6GJQsqaUBKTNV-0" />
        <mxCell id="WIyWlLk6GJQsqaUBKTNV-1" parent="WIyWlLk6GJQsqaUBKTNV-0" />
        <mxCell id="sAwULRXJ2yYVxoL_L_vd-2" value="&lt;p style=&quot;margin: 0px ; margin-top: 4px ; text-align: center&quot;&gt;&lt;i&gt;&amp;lt;&amp;lt;Interface&amp;gt;&amp;gt;&lt;/i&gt;&lt;br&gt;&lt;b&gt;Cache&lt;/b&gt;&lt;/p&gt;&lt;hr size=&quot;1&quot;&gt;&lt;p style=&quot;margin: 0px ; margin-left: 4px&quot;&gt;+ get(Object key): Object&lt;br&gt;+ put(Object Key, Object value): void&lt;/p&gt;&lt;p style=&quot;margin: 0px ; margin-left: 4px&quot;&gt;+ delete(Object key): void&lt;/p&gt;" style="verticalAlign=top;align=left;overflow=fill;fontSize=12;fontFamily=Helvetica;html=1;" vertex="1" parent="WIyWlLk6GJQsqaUBKTNV-1">
          <mxGeometry x="20" y="-50" width="251" height="150" as="geometry" />
        </mxCell>
        <mxCell id="sAwULRXJ2yYVxoL_L_vd-3" value="&lt;p style=&quot;margin: 0px ; margin-top: 4px ; text-align: center&quot;&gt;&lt;i&gt;&amp;lt;&amp;lt;Interface&amp;gt;&amp;gt;&lt;/i&gt;&lt;br&gt;&lt;b&gt;reBuildable&lt;/b&gt;&lt;/p&gt;&lt;hr size=&quot;1&quot;&gt;&lt;p style=&quot;margin: 0px ; margin-left: 4px&quot;&gt;+ reBuild(Config conf): void&lt;/p&gt;" style="verticalAlign=top;align=left;overflow=fill;fontSize=12;fontFamily=Helvetica;html=1;" vertex="1" parent="WIyWlLk6GJQsqaUBKTNV-1">
          <mxGeometry x="330" y="-50" width="251" height="150" as="geometry" />
        </mxCell>
        <mxCell id="sAwULRXJ2yYVxoL_L_vd-4" value="" style="endArrow=block;dashed=1;endFill=0;endSize=12;html=1;entryX=0.449;entryY=1.014;entryDx=0;entryDy=0;entryPerimeter=0;exitX=0.5;exitY=0;exitDx=0;exitDy=0;" edge="1" parent="WIyWlLk6GJQsqaUBKTNV-1" source="sAwULRXJ2yYVxoL_L_vd-5" target="sAwULRXJ2yYVxoL_L_vd-3">
          <mxGeometry width="160" relative="1" as="geometry">
            <mxPoint x="260" y="340" as="sourcePoint" />
            <mxPoint x="250" y="210" as="targetPoint" />
          </mxGeometry>
        </mxCell>
        <mxCell id="sAwULRXJ2yYVxoL_L_vd-5" value="RebuildableCache" style="swimlane;fontStyle=1;align=center;verticalAlign=top;childLayout=stackLayout;horizontal=1;startSize=26;horizontalStack=0;resizeParent=1;resizeParentMax=0;resizeLast=0;collapsible=1;marginBottom=0;" vertex="1" parent="WIyWlLk6GJQsqaUBKTNV-1">
          <mxGeometry x="320" y="220" width="250" height="170" as="geometry" />
        </mxCell>
        <mxCell id="sAwULRXJ2yYVxoL_L_vd-7" value="" style="line;strokeWidth=1;fillColor=none;align=left;verticalAlign=middle;spacingTop=-1;spacingLeft=3;spacingRight=3;rotatable=0;labelPosition=right;points=[];portConstraint=eastwest;" vertex="1" parent="sAwULRXJ2yYVxoL_L_vd-5">
          <mxGeometry y="26" width="250" height="8" as="geometry" />
        </mxCell>
        <mxCell id="sAwULRXJ2yYVxoL_L_vd-8" value="+ get(Object key): Object&#xa;+ put(Object Key, Object value): void&#xa;+ delete(Object key): void&#xa;+ reBuild(Config conf): void" style="text;strokeColor=none;fillColor=none;align=left;verticalAlign=top;spacingLeft=4;spacingRight=4;overflow=hidden;rotatable=0;points=[[0,0.5],[1,0.5]];portConstraint=eastwest;" vertex="1" parent="sAwULRXJ2yYVxoL_L_vd-5">
          <mxGeometry y="34" width="250" height="136" as="geometry" />
        </mxCell>
        <mxCell id="sAwULRXJ2yYVxoL_L_vd-9" value="" style="endArrow=block;dashed=1;endFill=0;endSize=12;html=1;entryX=0.75;entryY=1;entryDx=0;entryDy=0;exitX=0.5;exitY=0;exitDx=0;exitDy=0;" edge="1" parent="WIyWlLk6GJQsqaUBKTNV-1" source="sAwULRXJ2yYVxoL_L_vd-5" target="sAwULRXJ2yYVxoL_L_vd-2">
          <mxGeometry width="160" relative="1" as="geometry">
            <mxPoint x="280" y="380" as="sourcePoint" />
            <mxPoint x="452.6990000000003" y="112.09999999999991" as="targetPoint" />
          </mxGeometry>
        </mxCell>
        <mxCell id="sAwULRXJ2yYVxoL_L_vd-10" value="" style="endArrow=block;dashed=1;endFill=0;endSize=12;html=1;entryX=0.565;entryY=1;entryDx=0;entryDy=0;entryPerimeter=0;exitX=0.5;exitY=0;exitDx=0;exitDy=0;" edge="1" parent="WIyWlLk6GJQsqaUBKTNV-1" source="sAwULRXJ2yYVxoL_L_vd-11" target="sAwULRXJ2yYVxoL_L_vd-2">
          <mxGeometry width="160" relative="1" as="geometry">
            <mxPoint x="161" y="340" as="sourcePoint" />
            <mxPoint x="160.77099999999996" y="108.64999999999986" as="targetPoint" />
          </mxGeometry>
        </mxCell>
        <mxCell id="sAwULRXJ2yYVxoL_L_vd-11" value="DefaultCache" style="swimlane;fontStyle=1;align=center;verticalAlign=top;childLayout=stackLayout;horizontal=1;startSize=26;horizontalStack=0;resizeParent=1;resizeParentMax=0;resizeLast=0;collapsible=1;marginBottom=0;" vertex="1" parent="WIyWlLk6GJQsqaUBKTNV-1">
          <mxGeometry x="20" y="220" width="250" height="170" as="geometry" />
        </mxCell>
        <mxCell id="sAwULRXJ2yYVxoL_L_vd-12" value="" style="line;strokeWidth=1;fillColor=none;align=left;verticalAlign=middle;spacingTop=-1;spacingLeft=3;spacingRight=3;rotatable=0;labelPosition=right;points=[];portConstraint=eastwest;" vertex="1" parent="sAwULRXJ2yYVxoL_L_vd-11">
          <mxGeometry y="26" width="250" height="8" as="geometry" />
        </mxCell>
        <mxCell id="sAwULRXJ2yYVxoL_L_vd-13" value="+ get(Object key): Object&#xa;+ put(Object Key, Object value): void&#xa;+ delete(Object key): void" style="text;strokeColor=none;fillColor=none;align=left;verticalAlign=top;spacingLeft=4;spacingRight=4;overflow=hidden;rotatable=0;points=[[0,0.5],[1,0.5]];portConstraint=eastwest;" vertex="1" parent="sAwULRXJ2yYVxoL_L_vd-11">
          <mxGeometry y="34" width="250" height="136" as="geometry" />
        </mxCell>
      </root>
    </mxGraphModel>
  </diagram>
</mxfile>
